bicep_curl
version=1
nRows=491
nColumns=3
inDegrees=yes

# SIMM Motion File Header:
name bicep_curl
datacolumns 3
datarows 491
otherdata 1
range 0.0000 0.4900
endheader
time	/jointset/r_shoulder/r_shoulder_elev/value	/jointset/r_elbow/r_elbow_flex/value
0.0000	0.0000	131.8800
0.0010	0.0000	131.6981
0.0020	0.0000	131.5163
0.0030	0.0000	131.3346
0.0040	0.0000	131.1530
0.0050	0.0000	130.9715
0.0060	0.0000	130.7900
0.0070	0.0000	130.6087
0.0080	0.0000	130.4274
0.0090	0.0000	130.2462
0.0100	0.0000	130.0651
0.0110	0.0000	129.8841
0.0120	0.0000	129.7032
0.0130	0.0000	129.5224
0.0140	0.0000	129.3416
0.0150	0.0000	129.1610
0.0160	0.0000	128.9804
0.0170	0.0000	128.7999
0.0180	0.0000	128.6195
0.0190	0.0000	128.4392
0.0200	0.0000	128.2590
0.0210	0.0000	128.0788
0.0220	0.0000	127.8988
0.0230	0.0000	127.7188
0.0240	0.0000	127.5390
0.0250	0.0000	127.3592
0.0260	0.0000	127.1795
0.0270	0.0000	126.9999
0.0280	0.0000	126.8203
0.0290	0.0000	126.6409
0.0300	0.0000	126.4615
0.0310	0.0000	126.2823
0.0320	0.0000	126.1031
0.0330	0.0000	125.9240
0.0340	0.0000	125.7450
0.0350	0.0000	125.5661
0.0360	0.0000	125.3872
0.0370	0.0000	125.2085
0.0380	0.0000	125.0298
0.0390	0.0000	124.8513
0.0400	0.0000	124.6728
0.0410	0.0000	124.4944
0.0420	0.0000	124.3161
0.0430	0.0000	124.1379
0.0440	0.0000	123.9597
0.0450	0.0000	123.7817
0.0460	0.0000	123.6037
0.0470	0.0000	123.4258
0.0480	0.0000	123.2481
0.0490	0.0000	123.0704
0.0500	0.0000	122.8927
0.0510	0.0000	122.7152
0.0520	0.0000	122.5378
0.0530	0.0000	122.3604
0.0540	0.0000	122.1832
0.0550	0.0000	122.0060
0.0560	0.0000	121.8289
0.0570	0.0000	121.6519
0.0580	0.0000	121.4750
0.0590	0.0000	121.2981
0.0600	0.0000	121.1214
0.0610	0.0000	120.9447
0.0620	0.0000	120.7682
0.0630	0.0000	120.5917
0.0640	0.0000	120.4153
0.0650	0.0000	120.2390
0.0660	0.0000	120.0628
0.0670	0.0000	119.8866
0.0680	0.0000	119.7106
0.0690	0.0000	119.5346
0.0700	0.0000	119.3588
0.0710	0.0000	119.1830
0.0720	0.0000	119.0073
0.0730	0.0000	118.8317
0.0740	0.0000	118.6562
0.0750	0.0000	118.4807
0.0760	0.0000	118.3054
0.0770	0.0000	118.1301
0.0780	0.0000	117.9549
0.0790	0.0000	117.7798
0.0800	0.0000	117.6048
0.0810	0.0000	117.4299
0.0820	0.0000	117.2551
0.0830	0.0000	117.0804
0.0840	0.0000	116.9057
0.0850	0.0000	116.7311
0.0860	0.0000	116.5567
0.0870	0.0000	116.3823
0.0880	0.0000	116.2080
0.0890	0.0000	116.0337
0.0900	0.0000	115.8596
0.0910	0.0000	115.6856
0.0920	0.0000	115.5116
0.0930	0.0000	115.3377
0.0940	0.0000	115.1640
0.0950	0.0000	114.9903
0.0960	0.0000	114.8167
0.0970	0.0000	114.6431
0.0980	0.0000	114.4697
0.0990	0.0000	114.2964
0.1000	0.0000	114.1231
0.1010	0.0000	113.9499
0.1020	0.0000	113.7768
0.1030	0.0000	113.6038
0.1040	0.0000	113.4309
0.1050	0.0000	113.2581
0.1060	0.0000	113.0854
0.1070	0.0000	112.9127
0.1080	0.0000	112.7401
0.1090	0.0000	112.5677
0.1100	0.0000	112.3953
0.1110	0.0000	112.2230
0.1120	0.0000	112.0508
0.1130	0.0000	111.8786
0.1140	0.0000	111.7066
0.1150	0.0000	111.5346
0.1160	0.0000	111.3628
0.1170	0.0000	111.1910
0.1180	0.0000	111.0193
0.1190	0.0000	110.8477
0.1200	0.0000	110.6762
0.1210	0.0000	110.5047
0.1220	0.0000	110.3334
0.1230	0.0000	110.1621
0.1240	0.0000	109.9910
0.1250	0.0000	109.8199
0.1260	0.0000	109.6489
0.1270	0.0000	109.4780
0.1280	0.0000	109.3071
0.1290	0.0000	109.1364
0.1300	0.0000	108.9658
0.1310	0.0000	108.7952
0.1320	0.0000	108.6247
0.1330	0.0000	108.4543
0.1340	0.0000	108.2840
0.1350	0.0000	108.1138
0.1360	0.0000	107.9437
0.1370	0.0000	107.7737
0.1380	0.0000	107.6037
0.1390	0.0000	107.4338
0.1400	0.0000	107.2641
0.1410	0.0000	107.0944
0.1420	0.0000	106.9248
0.1430	0.0000	106.7552
0.1440	0.0000	106.5858
0.1450	0.0000	106.4165
0.1460	0.0000	106.2472
0.1470	0.0000	106.0780
0.1480	0.0000	105.9090
0.1490	0.0000	105.7400
0.1500	0.0000	105.5711
0.1510	0.0000	105.4022
0.1520	0.0000	105.2335
0.1530	0.0000	105.0649
0.1540	0.0000	104.8963
0.1550	0.0000	104.7278
0.1560	0.0000	104.5594
0.1570	0.0000	104.3911
0.1580	0.0000	104.2229
0.1590	0.0000	104.0548
0.1600	0.0000	103.8868
0.1610	0.0000	103.7188
0.1620	0.0000	103.5510
0.1630	0.0000	103.3832
0.1640	0.0000	103.2155
0.1650	0.0000	103.0479
0.1660	0.0000	102.8804
0.1670	0.0000	102.7129
0.1680	0.0000	102.5456
0.1690	0.0000	102.3783
0.1700	0.0000	102.2112
0.1710	0.0000	102.0441
0.1720	0.0000	101.8771
0.1730	0.0000	101.7102
0.1740	0.0000	101.5434
0.1750	0.0000	101.3766
0.1760	0.0000	101.2100
0.1770	0.0000	101.0434
0.1780	0.0000	100.8770
0.1790	0.0000	100.7106
0.1800	0.0000	100.5443
0.1810	0.0000	100.3781
0.1820	0.0000	100.2120
0.1830	0.0000	100.0459
0.1840	0.0000	99.8800
0.1850	0.0000	99.7141
0.1860	0.0000	99.5483
0.1870	0.0000	99.3827
0.1880	0.0000	99.2171
0.1890	0.0000	99.0515
0.1900	0.0000	98.8861
0.1910	0.0000	98.7208
0.1920	0.0000	98.5555
0.1930	0.0000	98.3904
0.1940	0.0000	98.2253
0.1950	0.0000	98.0603
0.1960	0.0000	97.8954
0.1970	0.0000	97.7306
0.1980	0.0000	97.5658
0.1990	0.0000	97.4012
0.2000	0.0000	97.2366
0.2010	0.0000	97.0722
0.2020	0.0000	96.9078
0.2030	0.0000	96.7435
0.2040	0.0000	96.5793
0.2050	0.0000	96.4152
0.2060	0.0000	96.2511
0.2070	0.0000	96.0872
0.2080	0.0000	95.9233
0.2090	0.0000	95.7596
0.2100	0.0000	95.5959
0.2110	0.0000	95.4323
0.2120	0.0000	95.2688
0.2130	0.0000	95.1053
0.2140	0.0000	94.9420
0.2150	0.0000	94.7788
0.2160	0.0000	94.6156
0.2170	0.0000	94.4525
0.2180	0.0000	94.2895
0.2190	0.0000	94.1266
0.2200	0.0000	93.9638
0.2210	0.0000	93.8011
0.2220	0.0000	93.6384
0.2230	0.0000	93.4759
0.2240	0.0000	93.3134
0.2250	0.0000	93.1510
0.2260	0.0000	92.9887
0.2270	0.0000	92.8265
0.2280	0.0000	92.6644
0.2290	0.0000	92.5024
0.2300	0.0000	92.3404
0.2310	0.0000	92.1786
0.2320	0.0000	92.0168
0.2330	0.0000	91.8551
0.2340	0.0000	91.6935
0.2350	0.0000	91.5320
0.2360	0.0000	91.3706
0.2370	0.0000	91.2093
0.2380	0.0000	91.0480
0.2390	0.0000	90.8869
0.2400	0.0000	90.7258
0.2410	0.0000	90.5648
0.2420	0.0000	90.4039
0.2430	0.0000	90.2431
0.2440	0.0000	90.0824
0.2450	0.0000	89.9217
0.2460	0.0000	89.7612
0.2470	0.0000	89.6007
0.2480	0.0000	89.4403
0.2490	0.0000	89.2800
0.2500	0.0000	89.1198
0.2510	0.0000	88.9597
0.2520	0.0000	88.7997
0.2530	0.0000	88.6397
0.2540	0.0000	88.4799
0.2550	0.0000	88.3201
0.2560	0.0000	88.1604
0.2570	0.0000	88.0008
0.2580	0.0000	87.8413
0.2590	0.0000	87.6819
0.2600	0.0000	87.5226
0.2610	0.0000	87.3633
0.2620	0.0000	87.2042
0.2630	0.0000	87.0451
0.2640	0.0000	86.8861
0.2650	0.0000	86.7272
0.2660	0.0000	86.5684
0.2670	0.0000	86.4097
0.2680	0.0000	86.2511
0.2690	0.0000	86.0925
0.2700	0.0000	85.9340
0.2710	0.0000	85.7757
0.2720	0.0000	85.6174
0.2730	0.0000	85.4592
0.2740	0.0000	85.3011
0.2750	0.0000	85.1430
0.2760	0.0000	84.9851
0.2770	0.0000	84.8272
0.2780	0.0000	84.6695
0.2790	0.0000	84.5118
0.2800	0.0000	84.3542
0.2810	0.0000	84.1967
0.2820	0.0000	84.0393
0.2830	0.0000	83.8820
0.2840	0.0000	83.7247
0.2850	0.0000	83.5676
0.2860	0.0000	83.4105
0.2870	0.0000	83.2535
0.2880	0.0000	83.0966
0.2890	0.0000	82.9398
0.2900	0.0000	82.7831
0.2910	0.0000	82.6264
0.2920	0.0000	82.4699
0.2930	0.0000	82.3134
0.2940	0.0000	82.1571
0.2950	0.0000	82.0008
0.2960	0.0000	81.8446
0.2970	0.0000	81.6885
0.2980	0.0000	81.5324
0.2990	0.0000	81.3765
0.3000	0.0000	81.2206
0.3010	0.0000	81.0649
0.3020	0.0000	80.9092
0.3030	0.0000	80.7536
0.3040	0.0000	80.5981
0.3050	0.0000	80.4427
0.3060	0.0000	80.2874
0.3070	0.0000	80.1321
0.3080	0.0000	79.9770
0.3090	0.0000	79.8219
0.3100	0.0000	79.6669
0.3110	0.0000	79.5120
0.3120	0.0000	79.3572
0.3130	0.0000	79.2025
0.3140	0.0000	79.0479
0.3150	0.0000	78.8933
0.3160	0.0000	78.7389
0.3170	0.0000	78.5845
0.3180	0.0000	78.4302
0.3190	0.0000	78.2760
0.3200	0.0000	78.1219
0.3210	0.0000	77.9679
0.3220	0.0000	77.8139
0.3230	0.0000	77.6601
0.3240	0.0000	77.5063
0.3250	0.0000	77.3526
0.3260	0.0000	77.1991
0.3270	0.0000	77.0456
0.3280	0.0000	76.8921
0.3290	0.0000	76.7388
0.3300	0.0000	76.5856
0.3310	0.0000	76.4324
0.3320	0.0000	76.2794
0.3330	0.0000	76.1264
0.3340	0.0000	75.9735
0.3350	0.0000	75.8207
0.3360	0.0000	75.6680
0.3370	0.0000	75.5153
0.3380	0.0000	75.3628
0.3390	0.0000	75.2103
0.3400	0.0000	75.0580
0.3410	0.0000	74.9057
0.3420	0.0000	74.7535
0.3430	0.0000	74.6014
0.3440	0.0000	74.4494
0.3450	0.0000	74.2974
0.3460	0.0000	74.1456
0.3470	0.0000	73.9938
0.3480	0.0000	73.8421
0.3490	0.0000	73.6906
0.3500	0.0000	73.5391
0.3510	0.0000	73.3876
0.3520	0.0000	73.2363
0.3530	0.0000	73.0851
0.3540	0.0000	72.9339
0.3550	0.0000	72.7829
0.3560	0.0000	72.6319
0.3570	0.0000	72.4810
0.3580	0.0000	72.3302
0.3590	0.0000	72.1795
0.3600	0.0000	72.0289
0.3610	0.0000	71.8783
0.3620	0.0000	71.7279
0.3630	0.0000	71.5775
0.3640	0.0000	71.4272
0.3650	0.0000	71.2770
0.3660	0.0000	71.1269
0.3670	0.0000	70.9769
0.3680	0.0000	70.8270
0.3690	0.0000	70.6771
0.3700	0.0000	70.5274
0.3710	0.0000	70.3777
0.3720	0.0000	70.2281
0.3730	0.0000	70.0786
0.3740	0.0000	69.9292
0.3750	0.0000	69.7799
0.3760	0.0000	69.6306
0.3770	0.0000	69.4815
0.3780	0.0000	69.3324
0.3790	0.0000	69.1835
0.3800	0.0000	69.0346
0.3810	0.0000	68.8858
0.3820	0.0000	68.7371
0.3830	0.0000	68.5884
0.3840	0.0000	68.4399
0.3850	0.0000	68.2914
0.3860	0.0000	68.1431
0.3870	0.0000	67.9948
0.3880	0.0000	67.8466
0.3890	0.0000	67.6985
0.3900	0.0000	67.5505
0.3910	0.0000	67.4025
0.3920	0.0000	67.2547
0.3930	0.0000	67.1069
0.3940	0.0000	66.9593
0.3950	0.0000	66.8117
0.3960	0.0000	66.6642
0.3970	0.0000	66.5168
0.3980	0.0000	66.3695
0.3990	0.0000	66.2222
0.4000	0.0000	66.0751
0.4010	0.0000	65.9280
0.4020	0.0000	65.7811
0.4030	0.0000	65.6342
0.4040	0.0000	65.4874
0.4050	0.0000	65.3407
0.4060	0.0000	65.1940
0.4070	0.0000	65.0475
0.4080	0.0000	64.9011
0.4090	0.0000	64.7547
0.4100	0.0000	64.6084
0.4110	0.0000	64.4622
0.4120	0.0000	64.3161
0.4130	0.0000	64.1701
0.4140	0.0000	64.0242
0.4150	0.0000	63.8783
0.4160	0.0000	63.7326
0.4170	0.0000	63.5869
0.4180	0.0000	63.4413
0.4190	0.0000	63.2958
0.4200	0.0000	63.1504
0.4210	0.0000	63.0051
0.4220	0.0000	62.8599
0.4230	0.0000	62.7147
0.4240	0.0000	62.5697
0.4250	0.0000	62.4247
0.4260	0.0000	62.2798
0.4270	0.0000	62.1350
0.4280	0.0000	61.9903
0.4290	0.0000	61.8457
0.4300	0.0000	61.7012
0.4310	0.0000	61.5567
0.4320	0.0000	61.4124
0.4330	0.0000	61.2681
0.4340	0.0000	61.1239
0.4350	0.0000	60.9798
0.4360	0.0000	60.8358
0.4370	0.0000	60.6919
0.4380	0.0000	60.5480
0.4390	0.0000	60.4043
0.4400	0.0000	60.2606
0.4410	0.0000	60.1170
0.4420	0.0000	59.9735
0.4430	0.0000	59.8301
0.4440	0.0000	59.6868
0.4450	0.0000	59.5436
0.4460	0.0000	59.4004
0.4470	0.0000	59.2574
0.4480	0.0000	59.1144
0.4490	0.0000	58.9715
0.4500	0.0000	58.8287
0.4510	0.0000	58.6860
0.4520	0.0000	58.5434
0.4530	0.0000	58.4009
0.4540	0.0000	58.2584
0.4550	0.0000	58.1161
0.4560	0.0000	57.9738
0.4570	0.0000	57.8316
0.4580	0.0000	57.6895
0.4590	0.0000	57.5475
0.4600	0.0000	57.4056
0.4610	0.0000	57.2637
0.4620	0.0000	57.1220
0.4630	0.0000	56.9803
0.4640	0.0000	56.8388
0.4650	0.0000	56.6973
0.4660	0.0000	56.5559
0.4670	0.0000	56.4146
0.4680	0.0000	56.2733
0.4690	0.0000	56.1322
0.4700	0.0000	55.9911
0.4710	0.0000	55.8502
0.4720	0.0000	55.7093
0.4730	0.0000	55.5685
0.4740	0.0000	55.4278
0.4750	0.0000	55.2872
0.4760	0.0000	55.1466
0.4770	0.0000	55.0062
0.4780	0.0000	54.8658
0.4790	0.0000	54.7256
0.4800	0.0000	54.5854
0.4810	0.0000	54.4453
0.4820	0.0000	54.3053
0.4830	0.0000	54.1654
0.4840	0.0000	54.0255
0.4850	0.0000	53.8858
0.4860	0.0000	53.7461
0.4870	0.0000	53.6065
0.4880	0.0000	53.4671
0.4890	0.0000	53.3277
0.4900	0.0000	53.1883
